<?xml version="1.0" encoding="UTF-8"?>
<svg id="Layer_1" xmlns="http://www.w3.org/2000/svg" version="1.1" viewBox="0 0 48 59.8">
  <!-- Generator: Adobe Illustrator 30.2.1, SVG Export Plug-In . SVG Version: 2.1.1 Build 1)  -->
  <defs>
    <style>
      .st0 {
        fill: #159447;
      }
    </style>
  </defs>
  <path class="st0" d="M14.5,24.6h3.9c2.1,0,3.8-1.7,3.8-3.8v-5.8c0-2.1-1.7-3.8-3.8-3.8h-3.9c-.6,0-1.2.5-1.2,1.2v11.1c0,.6.5,1.2,1.2,1.2ZM15.6,13.6h2.7c.8,0,1.5.7,1.5,1.5v5.8c0,.8-.7,1.5-1.5,1.5h-2.7v-8.8h0Z"/>
  <path class="st0" d="M47.8,9.3L38.7.2c0,0-.1-.1-.2-.1,0,0-.2,0-.2,0H4.9c-.3,0-.6.3-.6.6v8.3H1.9c-1.1,0-1.9.9-1.9,1.9v14.3c0,1.1.9,1.9,1.9,1.9h2.4v27.7c0,.3.3.6.6.6h17.1l3.7,4.2c.1.1.3.2.4.2s.3,0,.4-.2l3.7-4.2h17.1c.3,0,.6-.3.6-.6V9.7c0-.2,0-.3-.2-.4h0ZM28.7,55.3l-2.6,3-2.6-3-.5-.6-.5-.6-4-4.6h3.2c.3,0,.6-.3.6-.6v-16.9h7.6v16.9c0,.3.3.6.6.6h3.2l-4,4.6-.5.6-.5.6h0ZM1.2,25.1v-14.3c0-.4.3-.8.8-.8h32.2c.4,0,.8.3.8.8v14.3c0,.4-.3.8-.8.8H1.9c-.4,0-.8-.3-.8-.8ZM38.8,9.2V2l7.2,7.2h-7.2Z"/>
  <path class="st0" d="M24.7,24.6c.6,0,1.2-.5,1.2-1.2v-4.9h4.1c.6,0,1.2-.5,1.2-1.2s-.5-1.2-1.2-1.2h-4.1v-2.7h5.5c.6,0,1.2-.5,1.2-1.2s-.5-1.2-1.2-1.2h-6.6c-.6,0-1.2.5-1.2,1.2v11.1c0,.6.5,1.2,1.2,1.2h0Z"/>
  <path class="st0" d="M5.4,24.6s0,0,.1,0c.6,0,1.2-.5,1.2-1.2v-3.6h2.6c1.4,0,2.6-1.2,2.6-2.6v-3.4c0-1.4-1.2-2.6-2.6-2.6h-3.8s0,0-.1,0c-.2,0-.4.1-.6.2-.3.2-.5.5-.5.9v11.1c0,.4.2.7.5.9.2.1.4.2.6.2h0ZM9.6,13.8v3.5c0,.2-.1.3-.3.3h-2.6v-4h2.6c.2,0,.3.1.3.3Z"/>
</svg>